<?xml version="1.0" encoding="UTF-8" standalone="no"?>
<svg
   id="Capa_1"
   enable-background="new 0 0 512 512"
   height="512"
   viewBox="0 0 512 512"
   width="512"
   version="1.1"
   sodipodi:docname="plan.svg"
   inkscape:version="1.1 (c68e22c387, 2021-05-23)"
   xmlns:inkscape="http://www.inkscape.org/namespaces/inkscape"
   xmlns:sodipodi="http://sodipodi.sourceforge.net/DTD/sodipodi-0.dtd"
   xmlns="http://www.w3.org/2000/svg"
   xmlns:svg="http://www.w3.org/2000/svg">
  <defs
     id="defs75" />
  <sodipodi:namedview
     id="namedview73"
     pagecolor="#ffffff"
     bordercolor="#666666"
     borderopacity="1.0"
     inkscape:pageshadow="2"
     inkscape:pageopacity="0.0"
     inkscape:pagecheckerboard="0"
     showgrid="false"
     inkscape:zoom="1.28125"
     inkscape:cx="283.31707"
     inkscape:cy="255.60976"
     inkscape:window-width="1920"
     inkscape:window-height="1009"
     inkscape:window-x="-8"
     inkscape:window-y="-8"
     inkscape:window-maximized="1"
     inkscape:current-layer="Capa_1" />
  <g
     id="g70"
     inkscape:export-filename="C:\Users\Dezerae\Documents\Current Writing\250223_TCH044_from-plot-to-publish\slides\images\plan.png"
     inkscape:export-xdpi="300"
     inkscape:export-ydpi="300">
    <path
       d="m 136.533,447.957 v -29.824 c 0,-14.138 11.462,-25.6 25.6,-25.6 14.139,0 25.6,11.462 25.6,25.6 v 29.824 z"
       fill="#e2dfe2"
       id="path2" />
    <path
       d="m 162.133,392.533 c -4.276,0 -8.304,1.054 -11.847,2.908 8.173,4.275 13.753,12.83 13.753,22.692 v 29.824 h 23.694 v -29.824 c 0,-14.138 -11.461,-25.6 -25.6,-25.6 z"
       fill="#d3ced5"
       id="path4" />
    <path
       d="M 196.267,483.327 H 128 v -31.593 c 0,-4.418 3.582,-8 8,-8 h 52.267 c 4.418,0 8,3.582 8,8 z"
       fill="#f4f2f4"
       id="path6" />
    <path
       d="m 188.025,443.733 h -23.694 c 4.552,0 8.241,3.69 8.241,8.242 v 31.352 h 23.694 v -31.352 c 0.001,-4.552 -3.689,-8.242 -8.241,-8.242 z"
       fill="#e2dfe2"
       id="path8" />
    <g
       id="g22">
      <path
         d="m 409.6,276.561 h 89.523 V 491.443 H 409.6 Z"
         fill="#f4f2f4"
         id="path10" />
      <path
         d="m 409.6,324.267 h 89.523 V 443.734 H 409.6 Z"
         fill="#4c5e71"
         id="path12"
         style="fill:#cccccc;fill-opacity:1" />
      <g
         id="g16">
        <path
           d="m 443.733,370.393 c -4.268,0 -7.726,-3.459 -7.726,-7.726 v -8.533 c 0,-4.268 3.459,-7.726 7.726,-7.726 4.267,0 7.726,3.459 7.726,7.726 v 8.533 c 10e-4,4.268 -3.458,7.726 -7.726,7.726 z"
           fill="#35414e"
           id="path14"
           style="fill:#1a1228;fill-opacity:1" />
      </g>
      <g
         id="g20">
        <path
           d="m 443.733,421.592 c -4.268,0 -7.726,-3.459 -7.726,-7.726 v -8.533 c 0,-4.268 3.459,-7.726 7.726,-7.726 4.267,0 7.726,3.459 7.726,7.726 v 8.533 c 10e-4,4.268 -3.458,7.726 -7.726,7.726 z"
           fill="#35414e"
           id="path18"
           style="fill:#1a1228;fill-opacity:1" />
      </g>
    </g>
    <path
       d="m 119.467,282.27 v 84.664 c 0,4.713 -3.82,8.533 -8.533,8.533 H 24.724 V 282.27 Z"
       fill="#f4f2f4"
       id="path24" />
    <g
       id="g30">
      <g
         id="g28">
        <path
           d="m 76.8,323.46 c -4.268,0 -7.726,-3.459 -7.726,-7.726 v -25.6 c 0,-4.268 3.459,-7.726 7.726,-7.726 4.268,0 7.726,3.459 7.726,7.726 v 25.6 c 0,4.267 -3.459,7.726 -7.726,7.726 z"
           fill="#4c5e71"
           id="path26"
           style="fill:#1a1228;fill-opacity:1" />
      </g>
    </g>
    <path
       d="m 95.772,282.27 v 84.664 c 0,4.713 -3.82,8.533 -8.533,8.533 h 23.694 c 4.713,0 8.533,-3.82 8.533,-8.533 V 282.27 Z"
       fill="#e2dfe2"
       id="path32" />
    <g
       id="g48">
      <path
         d="M 68.267,31.043 H 187.734 V 104.22 H 68.267 Z"
         fill="#f4f2f4"
         id="path34" />
      <path
         d="m 164.039,31.043 h 23.694 v 73.177 h -23.694 z"
         fill="#e2dfe2"
         id="path36" />
      <path
         d="m 153.6,31.043 h -51.2 v 29.224 c 0,4.418 3.582,8 8,8 h 35.2 c 4.418,0 8,-3.582 8,-8 z"
         fill="#eaa96a"
         id="path38"
         style="fill:#ffb347;fill-opacity:1" />
      <path
         d="m 76.508,204.8 h 102.984 c 4.551,0 8.241,-3.69 8.241,-8.241 V 102.4 H 68.267 v 94.159 c 0,4.551 3.689,8.241 8.241,8.241 z"
         fill="#eaa96a"
         id="path40"
         style="fill:#ffb347;fill-opacity:1" />
      <g
         fill="#e5935d"
         id="g46">
        <path
           d="m 164.039,102.4 v 94.159 c 0,4.552 -3.69,8.241 -8.241,8.241 h 23.694 c 4.551,0 8.241,-3.69 8.241,-8.241 V 102.4 Z"
           id="path42"
           style="fill:#ff6b35;fill-opacity:1" />
        <path
           d="m 129.906,31.043 v 28.982 c 0,4.552 -3.69,8.242 -8.241,8.242 h 23.694 c 4.552,0 8.241,-3.69 8.241,-8.242 V 31.043 Z"
           id="path44"
           style="fill:#ff6b35;fill-opacity:1" />
      </g>
    </g>
    <g
       id="g60">
      <path
         d="m 418.667,68.267 h -86.4 c -4.418,0 -8,-3.582 -8,-8 V 31.043 h 102.4 v 29.224 c 0,4.418 -3.582,8 -8,8 z"
         fill="#4c5e71"
         id="path50"
         style="fill:#4e4957;fill-opacity:1" />
      <path
         d="M 435.733,170.667 H 315.2 c -4.418,0 -8,-3.582 -8,-8 V 110.4 c 0,-4.418 3.582,-8 8,-8 h 120.533 c 4.418,0 8,3.582 8,8 v 52.267 c 0,4.418 -3.581,8 -8,8 z"
         fill="#eaa96a"
         id="path52"
         style="fill:#ffb347;fill-opacity:1" />
      <path
         d="m 401.6,136.533 h -52.267 c -4.418,0 -8,-3.582 -8,-8 V 102.4 H 409.6 v 26.133 c 0,4.419 -3.582,8 -8,8 z"
         fill="#e5935d"
         id="path54"
         style="fill:#ff6b35;fill-opacity:1" />
      <path
         d="m 402.973,31.043 v 28.982 c 0,4.552 -3.69,8.242 -8.241,8.242 h 23.694 c 4.552,0 8.241,-3.69 8.241,-8.242 V 31.043 Z"
         fill="#3c4958"
         id="path56"
         style="fill:#1a1228;fill-opacity:1" />
      <path
         d="m 435.492,102.4 h -23.694 c 4.552,0 8.241,3.69 8.241,8.241 v 51.784 c 0,4.552 -3.69,8.242 -8.241,8.242 h 23.694 c 4.551,0 8.241,-3.69 8.241,-8.242 v -51.784 c 0,-4.551 -3.69,-8.241 -8.241,-8.241 z"
         fill="#e5935d"
         id="path58"
         style="fill:#ff6b35;fill-opacity:1" />
    </g>
    <path
       d="m 512,225.998 v 277.469 c 0,4.713 -3.82,8.533 -8.533,8.533 H 8.533 C 3.82,512 0,508.18 0,503.467 V 8.533 C 0,3.82 3.82,0 8.533,0 H 503.466 C 508.18,0 512,3.82 512,8.533 v 140.963 c 0,2.276 -1.845,4.121 -4.121,4.121 l -25.892,0.001 c -2.276,0 -4.121,-1.845 -4.121,-4.121 V 42.667 c 0,-4.713 -3.82,-8.533 -8.533,-8.533 h -204.8 c -4.713,0 -8.533,3.82 -8.533,8.533 v 106.812 c 0,2.276 -1.845,4.121 -4.121,4.121 h -25.892 c -2.276,0 -4.121,-1.845 -4.121,-4.121 V 42.667 c 0,-4.713 -3.82,-8.533 -8.533,-8.533 H 42.667 c -4.713,0 -8.533,3.82 -8.533,8.533 v 204.8 c 0,4.713 3.82,8.533 8.533,8.533 h 170.667 c 4.713,0 8.533,-3.82 8.533,-8.533 v -21.479 c 0,-2.276 1.845,-4.121 4.121,-4.121 h 25.892 c 2.276,0 4.121,1.845 4.121,4.121 v 21.479 c 0,4.713 3.82,8.533 8.533,8.533 h 21.479 c 2.276,0 4.121,1.845 4.121,4.121 v 25.892 c 0,2.276 -1.845,4.121 -4.121,4.121 h -21.479 c -4.713,0 -8.533,3.82 -8.533,8.533 v 21.479 c 0,2.276 -1.845,4.121 -4.121,4.121 h -25.892 c -2.276,0 -4.121,-1.845 -4.121,-4.121 v -21.479 c 0,-4.713 -3.82,-8.533 -8.533,-8.533 H 42.667 c -4.713,0 -8.533,3.82 -8.533,8.533 v 170.667 c 0,4.713 3.82,8.533 8.533,8.533 h 170.667 c 4.713,0 8.533,-3.82 8.533,-8.533 v -72.679 c 0,-2.276 1.845,-4.121 4.121,-4.121 h 25.892 c 2.276,0 4.121,1.845 4.121,4.121 v 72.679 c 0,4.713 3.82,8.533 8.533,8.533 h 204.8 c 4.713,0 8.533,-3.82 8.533,-8.533 V 298.667 c 0,-4.713 -3.82,-8.533 -8.533,-8.533 H 362.521 c -2.276,0 -4.121,-1.845 -4.121,-4.121 v -25.892 c 0,-2.276 1.845,-4.121 4.121,-4.121 h 106.813 c 4.713,0 8.533,-3.82 8.533,-8.533 v -21.469 c 0,-2.276 1.845,-4.121 4.121,-4.121 h 25.892 c 2.275,10e-4 4.12,1.845 4.12,4.121 z"
       fill="#a6ccfb"
       id="path62"
       style="fill:#2ec4b6;fill-opacity:1" />
    <g
       fill="#8cbdf9"
       id="g68">
      <path
         d="m 503.467,0 h -23.694 c 4.713,0 8.533,3.82 8.533,8.533 v 140.963 c 0,2.276 -1.845,4.121 -4.121,4.121 h -2.203 c 0.002,0 0.003,0.001 0.005,0.001 l 25.892,-0.001 c 2.276,0 4.121,-1.845 4.121,-4.121 V 8.533 C 512,3.82 508.18,0 503.467,0 Z"
         id="path64"
         style="fill:#1a1228;fill-opacity:1" />
      <path
         d="m 507.879,221.878 h -25.892 2.198 c 2.276,0 4.121,1.845 4.121,4.121 v 277.469 c 0,4.713 -3.82,8.533 -8.533,8.533 h 23.694 c 4.713,0 8.533,-3.82 8.533,-8.533 v -277.47 c 0,-2.276 -1.845,-4.12 -4.121,-4.12 z"
         id="path66"
         style="fill:#1a1228;fill-opacity:1" />
    </g>
  </g>
  <g
     id="g14371-7"
     transform="translate(-203.29267,510.43902)">
    <rect
       x="508"
       y="94"
       width="68"
       height="68"
       rx="8"
       fill="#F4F1FF"
       stroke="#ccc8f0"
       stroke-width="0.5"
       id="rect44-1"
       style="fill:#8b3a7e;fill-opacity:1" />
    <text
       x="542"
       y="145"
       font-size="9px"
       font-weight="500"
       fill="#3d2b6b"
       text-anchor="middle"
       id="text46-8"
       style="fill:#e0d8f8;fill-opacity:1">Berry</text>
    <text
       x="542"
       y="156"
       font-size="8px"
       fill="#3d2b6b"
       text-anchor="middle"
       id="text48-8"
       style="fill:#e0d8f8;fill-opacity:1">#8B3A7E</text>
  </g>
  <g
     id="g14366"
     transform="translate(-151.6463,424.41463)">
    <rect
       x="534.35364"
       y="180.02438"
       width="68"
       height="68"
       rx="8"
       fill="#3D2B6B"
       id="rect32-4"
       style="fill:#5c2751;fill-opacity:1" />
    <text
       x="568.35364"
       y="231.02438"
       font-size="9px"
       font-weight="500"
       fill="#ccc8f0"
       text-anchor="middle"
       id="text34-7">Plum</text>
    <text
       x="568.35364"
       y="242.02438"
       font-size="8px"
       fill="#ccc8f0"
       text-anchor="middle"
       id="text36-4">#5C2751</text>
  </g>
  <rect
     x="-7.2926211"
     y="604.43903"
     width="68"
     height="68"
     rx="7.9999995"
     fill="#2ec4b6"
     id="rect8"
     style="stroke-width:0.999999" />
  <text
     x="26.707325"
     y="655.43915"
     font-size="9px"
     font-weight="500"
     fill="#083c38"
     text-anchor="middle"
     id="text10"
     style="stroke-width:0.999999">Reef</text>
  <text
     x="26.707325"
     y="666.43909"
     font-size="8.00001px"
     fill="#083c38"
     text-anchor="middle"
     id="text12"
     style="stroke-width:0.999999">#2EC4B6</text>
  <rect
     x="70.707321"
     y="604.43903"
     width="68"
     height="68"
     rx="7.9999995"
     fill="#7eecd9"
     id="rect14"
     style="stroke-width:0.999999" />
  <text
     x="104.70738"
     y="655.43915"
     font-size="9px"
     font-weight="500"
     fill="#0a4a44"
     text-anchor="middle"
     id="text16"
     style="stroke-width:0.999999">Foam</text>
  <text
     x="104.70738"
     y="666.43909"
     font-size="8.00001px"
     fill="#0a4a44"
     text-anchor="middle"
     id="text18"
     style="stroke-width:0.999999">#7EECD9</text>
  <rect
     x="148.70737"
     y="604.43903"
     width="68"
     height="68"
     rx="7.9999995"
     fill="#ff6b35"
     id="rect20"
     style="stroke-width:0.999999" />
  <text
     x="182.70731"
     y="655.43915"
     font-size="9px"
     font-weight="500"
     fill="#5c1200"
     text-anchor="middle"
     id="text22"
     style="stroke-width:0.999999">Ember</text>
  <text
     x="182.70731"
     y="666.43909"
     font-size="8.00001px"
     fill="#5c1200"
     text-anchor="middle"
     id="text24"
     style="stroke-width:0.999999">#FF6B35</text>
  <rect
     x="226.70729"
     y="604.43903"
     width="68"
     height="68"
     rx="7.9999995"
     fill="#ffb347"
     id="rect26"
     style="stroke-width:0.999999" />
  <text
     x="260.70737"
     y="655.43915"
     font-size="9px"
     font-weight="500"
     fill="#5c2c00"
     text-anchor="middle"
     id="text28"
     style="stroke-width:0.999999">Flame</text>
  <text
     x="260.70737"
     y="666.43909"
     font-size="8.00001px"
     fill="#5c2c00"
     text-anchor="middle"
     id="text30"
     style="stroke-width:0.999999">#FFB347</text>
  <text
     x="338.70731"
     y="655.43915"
     font-size="9px"
     font-weight="500"
     fill="#ccc8f0"
     text-anchor="middle"
     id="text34"
     style="stroke-width:0.999999">Plum</text>
  <text
     x="338.70731"
     y="666.43909"
     font-size="8.00001px"
     fill="#ccc8f0"
     text-anchor="middle"
     id="text36"
     style="stroke-width:0.999999">#5C2751</text>
  <g
     id="g14413"
     transform="translate(30.70733,510.43902)">
    <rect
       x="430"
       y="94"
       width="68"
       height="68"
       rx="8"
       fill="#6b46a8"
       id="rect38" />
    <text
       x="464"
       y="145"
       font-size="9px"
       font-weight="500"
       fill="#e0d8f8"
       text-anchor="middle"
       id="text40">Violet</text>
    <text
       x="464"
       y="156"
       font-size="8px"
       fill="#e0d8f8"
       text-anchor="middle"
       id="text42">#6B46A8</text>
  </g>
  <rect
     x="538.70728"
     y="604.43903"
     width="68"
     height="68"
     rx="7.9999995"
     fill="#1a1228"
     id="rect50"
     style="stroke-width:0.999999" />
  <text
     x="572.70734"
     y="655.43915"
     font-size="9px"
     font-weight="500"
     fill="#7eecd9"
     text-anchor="middle"
     id="text52"
     style="stroke-width:0.999999">Void</text>
  <text
     x="572.70734"
     y="666.43909"
     font-size="8.00001px"
     fill="#7eecd9"
     text-anchor="middle"
     id="text54"
     style="stroke-width:0.999999">#1A1228</text>
  <text
     xml:space="preserve"
     style="font-size:16px;line-height:1;font-family:Arial;-inkscape-font-specification:'Arial, Normal';font-variant-ligatures:none;letter-spacing:0px;word-spacing:0px"
     x="583.80487"
     y="250.53659"
     id="text20141"><tspan
       sodipodi:role="line"
       id="tspan20139"
       x="583.80487"
       y="250.53659">BEDROOM</tspan></text>
  <text
     xml:space="preserve"
     style="font-size:16px;line-height:1;font-family:Arial;-inkscape-font-specification:'Arial, Normal';font-variant-ligatures:none;letter-spacing:0px;word-spacing:0px"
     x="634.53656"
     y="302.82928"
     id="text20607"><tspan
       sodipodi:role="line"
       id="tspan20605"
       x="634.53656"
       y="302.82928">BATHROOM</tspan></text>
  <text
     xml:space="preserve"
     style="font-size:16px;line-height:1;font-family:Arial;-inkscape-font-specification:'Arial, Normal';font-variant-ligatures:none;letter-spacing:0px;word-spacing:0px"
     x="568.19513"
     y="346.53659"
     id="text21183"><tspan
       sodipodi:role="line"
       id="tspan21181"
       x="568.19513"
       y="346.53659">KITCHEN</tspan></text>
</svg>
